<?xml version="1.0" encoding="UTF-8"?>
<svg xmlns="http://www.w3.org/2000/svg" viewBox="0 0 400 260" role="img" aria-label="Portada ilustrada del videojuego Bloque Cero">
  <defs>
    <linearGradient id="f12" x1="0" y1="0" x2="1" y2="1">
      <stop offset="0%" stop-color="#0c1026"/>
      <stop offset="100%" stop-color="#5b8cff" stop-opacity="0.55"/>
    </linearGradient>
  </defs>
  <rect width="400" height="260" fill="url(#f12)"/>
  <rect x="30" y="88" width="34" height="34" rx="5" fill="#5b8cff" opacity="0.25"/>
  <rect x="30" y="132" width="34" height="34" rx="5" fill="#ff9ad5" opacity="0.25"/>
  <rect x="76" y="44" width="34" height="34" rx="5" fill="#5b8cff" opacity="0.25"/>
  <rect x="76" y="88" width="34" height="34" rx="5" fill="#ff9ad5" opacity="0.38"/>
  <rect x="76" y="176" width="34" height="34" rx="5" fill="#ff9ad5" opacity="0.64"/>
  <rect x="122" y="44" width="34" height="34" rx="5" fill="#ff9ad5" opacity="0.25"/>
  <rect x="122" y="132" width="34" height="34" rx="5" fill="#ff9ad5" opacity="0.77"/>
  <rect x="122" y="176" width="34" height="34" rx="5" fill="#5b8cff" opacity="0.38"/>
  <rect x="168" y="88" width="34" height="34" rx="5" fill="#ff9ad5" opacity="0.64"/>
  <rect x="168" y="132" width="34" height="34" rx="5" fill="#5b8cff" opacity="0.38"/>
  <rect x="214" y="44" width="34" height="34" rx="5" fill="#ff9ad5" opacity="0.25"/>
  <rect x="214" y="88" width="34" height="34" rx="5" fill="#5b8cff" opacity="0.77"/>
  <rect x="214" y="176" width="34" height="34" rx="5" fill="#5b8cff" opacity="0.51"/>
  <rect x="260" y="44" width="34" height="34" rx="5" fill="#5b8cff" opacity="0.25"/>
  <rect x="260" y="132" width="34" height="34" rx="5" fill="#5b8cff" opacity="0.25"/>
  <rect x="260" y="176" width="34" height="34" rx="5" fill="#ff9ad5" opacity="0.25"/>
  <rect x="306" y="88" width="34" height="34" rx="5" fill="#5b8cff" opacity="0.38"/>
  <rect x="306" y="132" width="34" height="34" rx="5" fill="#ff9ad5" opacity="0.51"/>
  <rect x="16" y="224" width="102" height="22" rx="11" fill="#07060f" opacity="0.55"/>
  <text x="26" y="239" font-family="Verdana,Geneva,sans-serif" font-size="11" letter-spacing="2" fill="#ffffff" opacity="0.95">PIXELPLAY</text>
</svg>
